<svg width="32" height="32" viewBox="0 0 32 32" fill="none" xmlns="http://www.w3.org/2000/svg">
<path fill-rule="evenodd" clip-rule="evenodd" d="M16.0002 5.24805C16.5534 5.24805 17.0019 5.69651 17.0019 6.24972V23.3316L24.2919 16.0415C24.6831 15.6503 25.3173 15.6503 25.7085 16.0415C26.0997 16.4327 26.0997 17.0669 25.7085 17.4581L16.7085 26.4581C16.5206 26.646 16.2659 26.7515 16.0002 26.7515C15.7345 26.7515 15.4798 26.646 15.2919 26.4581L6.29192 17.4581C5.90074 17.0669 5.90074 16.4327 6.29192 16.0415C6.6831 15.6503 7.31732 15.6503 7.7085 16.0415L14.9985 23.3316V6.24972C14.9985 5.69651 15.447 5.24805 16.0002 5.24805Z" fill="#CBCFD2"/>
</svg>
