<svg width="40" height="40" viewBox="0 0 40 40" fill="none" xmlns="http://www.w3.org/2000/svg">
<path fill-rule="evenodd" clip-rule="evenodd" d="M6.06923 12.5017C4.78891 12.5017 3.75101 13.5396 3.75101 14.82V25.1793C3.75101 26.4597 4.78891 27.4976 6.06923 27.4976H30.1786C31.4589 27.4976 32.4968 26.4597 32.4968 25.1793V14.82C32.4968 13.5396 31.4589 12.5017 30.1786 12.5017H6.06923ZM1.24683 14.82C1.24683 12.1566 3.40589 9.99756 6.06923 9.99756H30.1786C32.842 9.99756 35.001 12.1566 35.001 14.82V25.1793C35.001 27.8427 32.842 30.0017 30.1786 30.0017H6.06923C3.40589 30.0017 1.24683 27.8427 1.24683 25.1793V14.82ZM5.44269 15.8536C5.44269 14.9894 6.1432 14.2889 7.00733 14.2889H18.4394C19.3035 14.2889 20.0041 14.9894 20.0041 15.8536V24.1461C20.0041 25.0103 19.3036 25.7108 18.4394 25.7108H7.00733C6.1432 25.7108 5.44269 25.0103 5.44269 24.1461V15.8536ZM7.94687 16.7931V23.2066H17.4999V16.7931H7.94687ZM37.4986 15.8314C38.1901 15.8314 38.7507 16.392 38.7507 17.0835V22.9206C38.7507 23.6121 38.1901 24.1727 37.4986 24.1727C36.8071 24.1727 36.2465 23.6121 36.2465 22.9206V17.0835C36.2465 16.392 36.8071 15.8314 37.4986 15.8314Z" fill="white"/>
</svg>
