<svg width="28" height="28" viewBox="0 0 28 28" fill="none" xmlns="http://www.w3.org/2000/svg">
<path fill-rule="evenodd" clip-rule="evenodd" d="M7.25573 7.25573C7.59801 6.91345 8.15296 6.91345 8.49524 7.25573L14.0005 12.761L19.5057 7.25573C19.848 6.91345 20.403 6.91345 20.7452 7.25573C21.0875 7.59801 21.0875 8.15296 20.7452 8.49524L15.24 14.0005L20.7452 19.5057C21.0875 19.848 21.0875 20.403 20.7452 20.7452C20.403 21.0875 19.848 21.0875 19.5057 20.7452L14.0005 15.24L8.49524 20.7452C8.15296 21.0875 7.59801 21.0875 7.25573 20.7452C6.91345 20.403 6.91345 19.848 7.25573 19.5057L12.761 14.0005L7.25573 8.49524C6.91345 8.15296 6.91345 7.59801 7.25573 7.25573Z" fill="#CBCFD2"/>
</svg>
