<svg width="64" height="64" viewBox="0 0 64 64" fill="none" xmlns="http://www.w3.org/2000/svg">
<path fill-rule="evenodd" clip-rule="evenodd" d="M38.5791 10.0826C39.6389 10.4005 40.2402 11.5173 39.9223 12.5771L27.9223 52.5771C27.6044 53.6368 26.4875 54.2382 25.4278 53.9203C24.368 53.6024 23.7667 52.4855 24.0846 51.4258L36.0846 11.4258C36.4025 10.366 37.5193 9.76465 38.5791 10.0826ZM21.5081 16.6819C22.2367 17.5146 22.1523 18.7802 21.3196 19.5088L7.04268 32.0011L21.3196 44.4934C22.1523 45.222 22.2367 46.4877 21.5081 47.3203C20.7795 48.153 19.5139 48.2374 18.6812 47.5088L2.6812 33.5088C2.24645 33.1284 1.99707 32.5788 1.99707 32.0011C1.99707 31.4234 2.24645 30.8738 2.6812 30.4934L18.6812 16.4934C19.5139 15.7648 20.7795 15.8492 21.5081 16.6819ZM42.4919 16.6819C43.2204 15.8492 44.4861 15.7648 45.3187 16.4934L61.3187 30.4934C61.7535 30.8738 62.0029 31.4234 62.0029 32.0011C62.0029 32.5788 61.7535 33.1284 61.3187 33.5088L45.3187 47.5088C44.4861 48.2374 43.2204 48.153 42.4919 47.3203C41.7633 46.4877 41.8476 45.222 42.6803 44.4934L56.9573 32.0011L42.6803 19.5088C41.8476 18.7802 41.7633 17.5146 42.4919 16.6819Z" fill="white"/>
</svg>
