<svg width="40" height="40" viewBox="0 0 40 40" fill="none" xmlns="http://www.w3.org/2000/svg">
<path fill-rule="evenodd" clip-rule="evenodd" d="M8.70367 3.02455C9.16706 2.83214 9.66387 2.73309 10.1656 2.73309C10.6674 2.73309 11.1642 2.83214 11.6276 3.02455C12.09 3.21657 12.5101 3.49781 12.8638 3.85219L12.866 3.85437L30.934 21.7779L30.9371 21.781C31.1501 21.9904 31.2963 22.2583 31.357 22.5508C31.418 22.8448 31.39 23.1502 31.2766 23.4282C31.1632 23.7062 30.9695 23.944 30.7202 24.1114C30.4709 24.2787 30.1775 24.368 29.8772 24.3677H29.8547C29.4773 24.3677 29.1047 24.3918 28.7961 24.4549C28.4615 24.5232 28.3386 24.6104 28.3194 24.6295C27.7323 25.2167 22.7365 30.0533 19.5514 33.1369C19.1352 33.5398 18.75 33.9128 18.4095 34.2424C17.8164 34.8161 17.0238 35.1381 16.1987 35.1402C15.3735 35.1424 14.5796 34.8248 13.9836 34.2541L3.73248 24.4093C3.42736 24.1148 3.18228 23.7607 3.01508 23.371C2.84787 22.9813 2.76011 22.5622 2.75693 22.1381C2.75375 21.7141 2.83521 21.2937 2.99655 20.9015C3.15777 20.5097 3.39551 20.1539 3.69584 19.855L10.4855 13.0751L11.8994 14.489L5.108 21.2707C4.99596 21.3821 4.90585 21.5162 4.84573 21.6623C4.78561 21.8085 4.75525 21.9651 4.75643 22.1231C4.75762 22.2812 4.79032 22.4373 4.85263 22.5826C4.9148 22.7274 5.00519 22.8585 5.11852 22.9681L15.3664 32.8098C15.5889 33.0225 15.8857 33.1415 16.1935 33.1407C16.5015 33.1399 16.7972 33.0199 17.0186 32.8059C17.3577 32.4776 17.7403 32.1071 18.153 31.7076C21.3431 28.6191 26.3312 23.79 26.9055 23.2156C27.3395 22.7816 27.9275 22.5915 28.3957 22.4958C28.515 22.4714 28.636 22.4513 28.7571 22.4349C28.7571 22.4349 28.9206 22.4143 29.8547 22.3687C29.8625 22.3683 29.8703 22.3681 29.8781 22.3681M16.3704 10.0284L11.9031 14.4927L11.8994 14.489L16.3704 10.0284ZM16.3704 10.0284L28.7571 22.4349C29.1374 22.3835 28.6221 22.4429 29.8547 22.3687L29.8781 22.3681M14.8891 8.67784L11.4496 5.26583C11.2812 5.09684 11.0811 4.96274 10.8608 4.87125C10.6404 4.77975 10.4042 4.73266 10.1656 4.73266C9.92704 4.73266 9.69081 4.77975 9.47047 4.87125C9.25013 4.96274 9.05002 5.09682 8.88161 5.26582L8.47804 5.66939C8.30905 5.8378 8.17373 6.03914 8.08224 6.25947C7.99075 6.47981 7.94365 6.71604 7.94365 6.95462C7.94365 7.1932 7.99075 7.42944 8.08224 7.64977C8.17373 7.87011 8.30782 8.07022 8.47681 8.23863L11.9004 11.6622L13.2441 13.1466L11.9031 14.4927L10.4855 13.0751L7.06536 9.65499C6.71031 9.30097 6.42783 8.87964 6.23555 8.41658C6.04313 7.95319 5.94409 7.45637 5.94409 6.95462C5.94409 6.45288 6.04313 5.95606 6.23555 5.49267C6.42784 5.02957 6.70961 4.60895 7.0647 4.25491L7.46525 3.85437C7.81928 3.49929 8.24058 3.21684 8.70367 3.02455M13.2441 13.1466L11.9004 11.6622L14.8891 8.67784L16.3704 10.0284L13.2441 13.1466ZM31.9431 25.3763C32.1181 25.2934 32.3094 25.2503 32.5032 25.2503C32.6969 25.2503 32.8882 25.2934 33.0633 25.3763C33.2338 25.4572 33.3848 25.574 33.5058 25.7186C33.5858 25.8119 33.6935 25.9321 33.8213 26.0748C34.2783 26.585 34.993 27.3829 35.6221 28.271C36.4194 29.3966 37.2496 30.8888 37.2496 32.4311C37.2496 35.0656 35.1406 37.251 32.4993 37.251C29.8594 37.251 27.749 35.0757 27.749 32.4311C27.749 30.8872 28.5846 29.3942 29.3843 28.2695C30.0028 27.3997 30.7091 26.6093 31.1642 26.1C31.3016 25.9462 31.4162 25.818 31.4984 25.721C31.6199 25.5753 31.7715 25.4577 31.9431 25.3763ZM32.5043 27.6031C32.0654 28.0951 31.5266 28.7072 31.0139 29.4282C30.2607 30.4876 29.7485 31.5442 29.7485 32.4311C29.7485 34.0059 30.9979 35.2514 32.4993 35.2514C33.9991 35.2514 35.25 33.9988 35.25 32.4311C35.25 31.5426 34.7401 30.4852 33.9904 29.4268C33.4822 28.7093 32.9429 28.0944 32.5043 27.6031Z" fill="white"/>
</svg>
