<svg width="24" height="24" viewBox="0 0 24 24" fill="none" xmlns="http://www.w3.org/2000/svg">
<path fill-rule="evenodd" clip-rule="evenodd" d="M22.303 1.59326C22.5407 1.72561 22.688 1.97632 22.688 2.24837V17.8378C22.688 18.107 22.5437 18.3556 22.3099 18.489L15.7854 22.2132C15.5585 22.3427 15.2805 22.3448 15.0517 22.2186L8.66885 18.6999L2.65616 22.2095C2.42425 22.3449 2.13766 22.3459 1.90478 22.2122C1.67191 22.0785 1.52832 21.8305 1.52832 21.562V6.29008C1.52832 6.03316 1.65985 5.79413 1.87689 5.65665L8.25701 1.61494C8.49618 1.46343 8.8003 1.45955 9.04326 1.60491L15.4069 5.41223L21.5433 1.61093C21.7746 1.46767 22.0653 1.4609 22.303 1.59326ZM14.6639 6.71525L9.40812 3.57079V17.3949L14.6639 20.2924V6.71525ZM16.1635 20.2706L21.1883 17.4024V3.59493L16.1635 6.70763V20.2706ZM7.90844 17.4073V3.61101L3.02799 6.7027V20.256L7.90844 17.4073Z" fill="#CBCFD2"/>
</svg>
