<svg width="24" height="24" viewBox="0 0 24 24" fill="none" xmlns="http://www.w3.org/2000/svg">
<path fill-rule="evenodd" clip-rule="evenodd" d="M5.85502 3.61784C7.1895 2.72617 8.75842 2.25024 10.3634 2.25024H10.3634C12.5156 2.25038 14.5795 3.10538 16.1013 4.62717C17.6231 6.14896 18.4781 8.21291 18.4782 10.365V10.3651C18.4782 11.9701 18.0023 13.539 17.1106 14.8735C16.9543 15.1074 16.7864 15.3323 16.6079 15.5475L21.5328 20.4725C21.8262 20.7659 21.8262 21.2415 21.5328 21.5349C21.2394 21.8283 20.7638 21.8283 20.4704 21.5349L15.5454 16.6099C14.9232 17.1262 14.2239 17.5495 13.4688 17.8622C11.986 18.4764 10.3544 18.6371 8.78026 18.324C7.20613 18.0109 5.7602 17.238 4.62532 16.1032C3.49044 14.9683 2.71758 13.5223 2.40446 11.9482C2.09135 10.3741 2.25205 8.74247 2.86624 7.25967C3.48044 5.77688 4.52054 4.50951 5.85502 3.61784ZM10.3633 3.75275C9.05556 3.75276 7.77715 4.14057 6.68977 4.86713C5.60238 5.59371 4.75486 6.62641 4.25438 7.83466C3.75391 9.04291 3.62296 10.3724 3.8781 11.6551C4.13324 12.9378 4.76301 14.116 5.68776 15.0407C6.61251 15.9655 7.79072 16.5952 9.07338 16.8504C10.3561 17.1055 11.6856 16.9746 12.8938 16.4741C14.1021 15.9736 15.1348 15.1261 15.8613 14.0387C16.5879 12.9513 16.9757 11.6729 16.9757 10.3651M10.3634 3.75275C12.117 3.75288 13.7988 4.44957 15.0389 5.6896C16.2789 6.92963 16.9756 8.61143 16.9757 10.3651" fill="#CBCFD2"/>
</svg>
