<svg width="24" height="24" viewBox="0 0 24 24" fill="none" xmlns="http://www.w3.org/2000/svg">
<path fill-rule="evenodd" clip-rule="evenodd" d="M8.24962 3.75202C8.05104 3.75202 7.8606 3.83091 7.72018 3.97132C7.57976 4.11174 7.50088 4.30219 7.50088 4.50077V5.24987H16.4984V4.50077C16.4984 4.30219 16.4195 4.11174 16.2791 3.97132C16.1387 3.83091 15.9482 3.75202 15.7496 3.75202H8.24962ZM18.0009 5.24987V4.50077C18.0009 3.9037 17.7637 3.33108 17.3415 2.90889C16.9193 2.4867 16.3467 2.24951 15.7496 2.24951H8.24962C7.65255 2.24951 7.07994 2.4867 6.65775 2.90889C6.23555 3.33108 5.99837 3.9037 5.99837 4.50077V5.24987H3.7493C2.09175 5.24987 0.748047 6.59357 0.748047 8.25112V18.7511C0.748047 20.4087 2.09175 21.7524 3.7493 21.7524H20.2493C21.9069 21.7524 23.2506 20.4087 23.2506 18.7511V8.25112C23.2506 6.59357 21.9069 5.24987 20.2493 5.24987H18.0009ZM21.748 10.4993V8.25112C21.748 7.42339 21.077 6.75238 20.2493 6.75238H3.7493C2.92157 6.75238 2.25056 7.42339 2.25056 8.25112V10.4993H21.748ZM15.7512 12.0018H21.748V18.7511C21.748 19.5789 21.077 20.2499 20.2493 20.2499H3.7493C2.92157 20.2499 2.25056 19.5789 2.25056 18.7511V12.0018H8.24788V12.3757C8.24788 12.6744 8.36654 12.9609 8.57777 13.1721C8.78899 13.3833 9.07548 13.502 9.37419 13.502H14.6249C14.9237 13.502 15.2101 13.3833 15.4214 13.1721C15.6326 12.9609 15.7512 12.6744 15.7512 12.3757V12.0018Z" fill="#CBCFD2"/>
</svg>
