<svg width="24" height="24" viewBox="0 0 24 24" fill="none" xmlns="http://www.w3.org/2000/svg">
<path fill-rule="evenodd" clip-rule="evenodd" d="M3.93875 5.24829H12.5886C13.4269 5.25089 14.2302 5.58506 14.823 6.17785C15.4157 6.77064 15.7499 7.5739 15.7525 8.41222L15.7525 8.41455L15.7525 15.562L15.7525 15.5642C15.7501 16.4086 15.4136 17.2177 14.8165 17.8148C14.2194 18.4119 13.4103 18.7484 12.5659 18.7508L12.5638 18.7508H3.93875L3.9366 18.7508C3.09221 18.7484 2.28309 18.4119 1.68601 17.8148C1.08894 17.2177 0.752428 16.4086 0.750003 15.5642L0.75 15.562V8.43489C0.752425 7.5905 1.08894 6.78138 1.68601 6.18431C2.28309 5.58723 3.09221 5.25072 3.9366 5.24829L3.93875 5.24829ZM3.93992 6.7508C3.49288 6.75235 3.06458 6.93061 2.74845 7.24674C2.43232 7.56287 2.25405 7.99117 2.25251 8.43822V15.5609C2.25405 16.0079 2.43232 16.4362 2.74845 16.7524C3.06459 17.0685 3.49293 17.2468 3.94 17.2483H12.5625C13.0096 17.2468 13.4379 17.0685 13.7541 16.7524C14.0702 16.4362 14.2485 16.0079 14.25 15.5608V8.41563C14.2483 7.97463 14.0724 7.55215 13.7605 7.24029C13.4486 6.92838 13.0261 6.75244 12.585 6.7508H3.93992ZM21.1394 6.10947C21.368 6.00785 21.6183 5.96495 21.8677 5.98468C22.117 6.0044 22.3575 6.08612 22.5673 6.22241C22.777 6.3587 22.9494 6.54525 23.0687 6.76509C23.188 6.98493 23.2505 7.2311 23.2505 7.48124V16.5169C23.2505 16.767 23.188 17.0132 23.0687 17.233C22.9494 17.4529 22.777 17.6394 22.5673 17.7757C22.3575 17.912 22.117 17.9937 21.8677 18.0134C21.6183 18.0332 21.368 17.9903 21.1394 17.8887C21.0948 17.8688 21.0521 17.8446 21.0122 17.8165L17.1351 15.0874C16.9384 14.9489 16.7777 14.7651 16.6669 14.5515C16.556 14.3379 16.4981 14.1008 16.498 13.8602V10.1381C16.4981 9.89747 16.556 9.6602 16.6669 9.44661C16.7777 9.23302 16.9383 9.04922 17.1351 8.91069L21.0122 6.18162C21.0521 6.15349 21.0948 6.12932 21.1394 6.10947ZM21.748 7.50106L18.0005 10.1389V13.8592L21.748 16.4971V7.50106Z" fill="#CBCFD2"/>
</svg>
