<svg width="24" height="24" viewBox="0 0 24 24" fill="none" xmlns="http://www.w3.org/2000/svg">
<path fill-rule="evenodd" clip-rule="evenodd" d="M20.2505 5.25153V18.749H21.748V5.25153H20.2505ZM18.748 4.87528C18.748 4.25327 19.2523 3.74902 19.8743 3.74902H22.1243C22.7463 3.74902 23.2505 4.25327 23.2505 4.87528V19.1253C23.2505 19.7473 22.7463 20.2515 22.1243 20.2515H19.8743C19.2523 20.2515 18.748 19.7473 18.748 19.1253V4.87528ZM14.2519 9.00182V18.7493H15.7493V9.00182H14.2519ZM12.7493 8.62556C12.7493 8.00355 13.2536 7.49931 13.8756 7.49931H16.1256C16.7476 7.49931 17.2519 8.00355 17.2519 8.62556V19.1256C17.2519 19.7476 16.7476 20.2518 16.1256 20.2518H13.8756C13.2536 20.2518 12.7493 19.7476 12.7493 19.1256V8.62556ZM8.25169 12.0012V18.7498H9.74961V12.0012H8.25169ZM6.74918 11.625C6.74918 11.0029 7.25345 10.4987 7.87549 10.4987H10.1258C10.7479 10.4987 11.2521 11.0029 11.2521 11.625V19.126C11.2521 19.7481 10.7479 20.2523 10.1258 20.2523H7.87549C7.25345 20.2523 6.74918 19.7481 6.74918 19.126V11.625ZM2.25153 15.0018V18.7514H3.75025V15.0018H2.25153ZM0.749023 14.6257C0.749023 14.0036 1.25333 13.4993 1.87543 13.4993H4.12635C4.74845 13.4993 5.25276 14.0036 5.25276 14.6257V19.1275C5.25276 19.7496 4.74845 20.2539 4.12635 20.2539H1.87543C1.25333 20.2539 0.749023 19.7496 0.749023 19.1275V14.6257Z" fill="#CBCFD2"/>
</svg>
