<svg width="24" height="24" viewBox="0 0 24 24" fill="none" xmlns="http://www.w3.org/2000/svg">
<path d="M16.8774 6.75117C16.8774 7.58021 16.2053 8.25228 15.3763 8.25228C14.5472 8.25228 13.8752 7.58021 13.8752 6.75117C13.8752 5.92214 14.5472 5.25007 15.3763 5.25007C16.2053 5.25007 16.8774 5.92214 16.8774 6.75117Z" fill="#CBCFD2"/>
<path d="M12.002 6.75136C12.002 7.58039 11.3299 8.25246 10.5009 8.25246C9.67182 8.25246 8.99976 7.58039 8.99976 6.75136C8.99976 5.92232 9.67182 5.25025 10.5009 5.25025C11.3299 5.25025 12.002 5.92232 12.002 6.75136Z" fill="#CBCFD2"/>
<path d="M6.75168 11.2522C7.58071 11.2522 8.25278 10.5801 8.25278 9.75107C8.25278 8.92203 7.58071 8.24997 6.75168 8.24997C5.92264 8.24997 5.25057 8.92203 5.25057 9.75107C5.25057 10.5801 5.92264 11.2522 6.75168 11.2522Z" fill="#CBCFD2"/>
<path d="M7.1266 16.0802C7.95563 16.0802 8.6277 15.4081 8.6277 14.5791C8.6277 13.75 7.95563 13.078 7.1266 13.078C6.29756 13.078 5.62549 13.75 5.62549 14.5791C5.62549 15.4081 6.29756 16.0802 7.1266 16.0802Z" fill="#CBCFD2"/>
<path d="M12.0013 19.4564C13.2448 19.4564 14.2529 18.4483 14.2529 17.2048C14.2529 15.9612 13.2448 14.9531 12.0013 14.9531C10.7577 14.9531 9.74959 15.9612 9.74959 17.2048C9.74959 18.4483 10.7577 19.4564 12.0013 19.4564Z" fill="#CBCFD2"/>
<path fill-rule="evenodd" clip-rule="evenodd" d="M21.0813 15.3208L21.0764 15.3162C20.4621 14.7485 19.6367 14.6186 19.301 14.5658C19.2749 14.5617 19.2515 14.558 19.2316 14.5546L19.2271 14.5539C19.0197 14.5196 18.9571 14.4965 18.9467 14.4923C18.9356 14.485 18.9065 14.4635 18.8482 14.4113L18.844 14.4076C18.8371 14.4015 18.8309 14.3956 18.8254 14.3902C18.8309 14.3849 18.8371 14.379 18.844 14.3728L20.2618 13.1142L20.263 13.1131C23.0448 10.6539 23.0444 6.55631 20.2618 4.09756L20.2598 4.0958C18.3703 2.4328 15.8842 1.6499 13.3774 1.6499C10.4521 1.6499 7.40172 2.71222 5.03912 4.80613C0.517965 8.80278 0.518209 15.4177 5.03986 19.4141C7.26614 21.3827 10.2211 22.3286 13.0911 22.3493H13.1806C16.0458 22.3493 18.9424 21.4271 21.0504 19.5538C21.7469 18.9383 21.9928 18.0895 21.969 17.3537C21.9459 16.6357 21.6634 15.8642 21.0813 15.3208ZM19.3681 12.1027L17.9478 13.3637C17.2774 13.959 17.2774 14.8215 17.9478 15.4168C18.2618 15.698 18.4681 15.7965 19.0071 15.8855L19.0374 15.8906C19.4195 15.9549 19.8589 16.0289 20.1603 16.3074C20.7176 16.8277 20.8306 17.948 20.1556 18.5434C18.3368 20.1605 15.7774 20.9996 13.1806 20.9996H13.1009C10.504 20.9809 7.879 20.123 5.93369 18.4027C2.01963 14.9434 2.01963 9.27617 5.93369 5.8168C8.03838 3.95117 10.7665 2.99961 13.3774 2.99961C15.6134 2.99961 17.7649 3.69805 19.3681 5.10898C21.5431 7.03086 21.5431 10.1809 19.3681 12.1027Z" fill="#CBCFD2"/>
</svg>
