<svg width="24" height="24" viewBox="0 0 24 24" fill="none" xmlns="http://www.w3.org/2000/svg">
<path fill-rule="evenodd" clip-rule="evenodd" d="M2.25001 3.59327C5.28951 3.60718 7.40817 3.98929 8.83318 4.67013C10.183 5.31503 10.9205 6.23001 11.25 7.44004V19.0807C9.5445 17.8214 6.92338 17.0947 2.26404 17.0933C2.25764 17.0767 2.25001 17.0476 2.25001 17.0028V3.59327ZM12.75 19.0796C14.4587 17.8158 17.0788 17.0933 21.75 17.0933V3.59327C18.7105 3.60717 16.5918 3.98929 15.1668 4.67013C13.817 5.31503 13.0795 6.23001 12.75 7.44004V19.0796ZM12 5.45457C11.4307 4.56687 10.5986 3.85121 9.47984 3.31668C7.75971 2.49484 5.37941 2.10729 2.25337 2.09327L2.25283 2.09327C2.05527 2.09253 1.85951 2.13089 1.67685 2.20615C1.49418 2.28141 1.32822 2.39208 1.18852 2.53178C1.04882 2.67148 0.938149 2.83744 0.862889 3.02011C0.787839 3.20227 0.74948 3.39744 0.750005 3.59444V17.0028C0.750005 17.3847 0.868299 17.7752 1.13028 18.0829C1.40172 18.4017 1.79761 18.5933 2.25001 18.5933C8.16077 18.5933 10.2014 19.794 11.4141 21.3115C11.5564 21.4895 11.7719 21.5932 11.9998 21.5933C12.2277 21.5933 12.4433 21.4897 12.5857 21.3118C13.8067 19.7853 15.8388 18.5933 21.75 18.5933C22.1478 18.5933 22.5294 18.4352 22.8107 18.1539C23.092 17.8726 23.25 17.4911 23.25 17.0933V3.59429C23.2505 3.39734 23.2122 3.20222 23.1371 3.02011C23.0619 2.83744 22.9512 2.67148 22.8115 2.53178C22.6718 2.39208 22.5058 2.28141 22.3232 2.20615C22.1405 2.13089 21.9447 2.09253 21.7472 2.09327L21.7466 2.09327C18.6206 2.10729 16.2403 2.49484 14.5202 3.31668C13.4014 3.85121 12.5693 4.56687 12 5.45457Z" fill="#CBCFD2"/>
</svg>
