<svg width="16" height="16" viewBox="0 0 16 16" fill="none" xmlns="http://www.w3.org/2000/svg">
<path fill-rule="evenodd" clip-rule="evenodd" d="M0.526106 11.4662C0.994606 9.58657 2.83837 8.70498 4.59537 8.70498C5.30294 8.70498 6.00035 8.81161 6.64805 9.10837C6.89909 9.22339 7.00936 9.52015 6.89434 9.77119C6.77932 10.0222 6.48256 10.1325 6.23151 10.0175C5.75069 9.79718 5.20514 9.70498 4.59537 9.70498C3.18432 9.70498 1.9566 10.3601 1.55809 11.5013H4.8142C5.09034 11.5013 5.3142 11.7252 5.3142 12.0013C5.3142 12.2774 5.09034 12.5013 4.8142 12.5013H1.30418C0.697262 12.5013 0.413671 11.92 0.526106 11.4662ZM5.53104 12.3623C6.09788 10.0862 8.33431 9.00088 10.5028 9.00088C12.6669 9.00088 14.9083 10.0515 15.4753 12.3637C15.5991 12.8675 15.2861 13.5016 14.6234 13.5016H6.38255C5.72165 13.5016 5.40474 12.8691 5.53104 12.3623ZM10.5028 10.0009C8.63671 10.0009 6.98561 10.9007 6.52872 12.5016H14.4777C14.0224 10.8746 12.3751 10.0009 10.5028 10.0009Z" fill="#CBCFD2"/>
<path fill-rule="evenodd" clip-rule="evenodd" d="M10.5067 6.99994C11.2547 6.99994 12.0114 6.30721 12.0114 5.25888C12.0114 4.21055 11.2547 3.51782 10.5067 3.51782C9.75857 3.51782 9.00192 4.21055 9.00192 5.25888C9.00192 6.30721 9.75857 6.99994 10.5067 6.99994ZM10.5067 7.99994C11.89 7.99994 13.0114 6.77273 13.0114 5.25888C13.0114 3.74504 11.89 2.51782 10.5067 2.51782C9.12333 2.51782 8.00192 3.74504 8.00192 5.25888C8.00192 6.77273 9.12333 7.99994 10.5067 7.99994Z" fill="#CBCFD2"/>
<path fill-rule="evenodd" clip-rule="evenodd" d="M4.59734 7.14807C5.17812 7.14807 5.76717 6.62092 5.76717 5.81958C5.76717 5.01823 5.17812 4.49109 4.59734 4.49109C4.01655 4.49109 3.42751 5.01823 3.42751 5.81958C3.42751 6.62092 4.01655 7.14807 4.59734 7.14807ZM4.59734 8.14807C5.7957 8.14807 6.76717 7.10557 6.76717 5.81958C6.76717 4.53359 5.7957 3.49109 4.59734 3.49109C3.39897 3.49109 2.42751 4.53359 2.42751 5.81958C2.42751 7.10557 3.39897 8.14807 4.59734 8.14807Z" fill="#CBCFD2"/>
</svg>
