<svg width="24" height="24" viewBox="0 0 24 24" fill="none" xmlns="http://www.w3.org/2000/svg">
<path fill-rule="evenodd" clip-rule="evenodd" d="M17.989 2.26368C18.4858 1.76689 19.1596 1.48779 19.8622 1.48779C20.5648 1.48779 21.2386 1.76689 21.7354 2.26368C22.2322 2.76051 22.5113 3.43435 22.5113 4.13695C22.5113 4.83713 22.2342 5.50873 21.7406 6.00506L11.4741 16.6464C11.2748 16.8529 10.9754 16.9279 10.7023 16.8396C10.4292 16.7513 10.2303 16.5151 10.1897 16.2311C10.1457 15.9226 9.94443 15.5419 9.59986 15.1995C9.25829 14.8601 8.84416 14.6271 8.47447 14.5518C8.21053 14.4981 7.99556 14.3072 7.91106 14.0514C7.82655 13.7956 7.88544 13.5142 8.0654 13.3138L17.9612 2.29299C17.9702 2.28298 17.9794 2.2732 17.989 2.26368ZM19.064 3.31375L9.89076 13.5298C10.1723 13.7018 10.4319 13.9081 10.659 14.1338C10.8529 14.3265 11.0334 14.5436 11.1878 14.7791L20.6729 4.94769C20.8879 4.73264 21.0088 4.44106 21.0088 4.13695C21.0088 3.83283 20.888 3.54117 20.673 3.32612C20.4579 3.1111 20.1663 2.9903 19.8622 2.9903C19.564 2.9903 19.2777 3.10647 19.064 3.31375ZM3.18579 18.322C3.18579 16.4949 4.64182 14.9988 6.46866 14.9988C8.2955 14.9988 9.75153 16.4949 9.75153 18.322C9.75153 20.6202 7.91573 22.5021 5.62479 22.5021C4.10932 22.5021 2.56208 21.7182 1.64607 20.4842C1.47687 20.2562 1.45061 19.9524 1.5782 19.6988C1.70579 19.4452 1.96542 19.2852 2.24931 19.2852C2.415 19.2852 2.66437 19.2077 2.86758 19.032C3.05317 18.8715 3.18579 18.6434 3.18579 18.322ZM6.46866 16.5013C5.49385 16.5013 4.6883 17.3023 4.6883 18.322C4.6883 19.2615 4.2198 19.9349 3.62818 20.3381C4.21936 20.7547 4.93746 20.9996 5.62479 20.9996C7.06375 20.9996 8.24902 19.8127 8.24902 18.322C8.24902 17.3023 7.44347 16.5013 6.46866 16.5013Z" fill="#CBCFD2"/>
</svg>
