<svg width="24" height="24" viewBox="0 0 24 24" fill="none" xmlns="http://www.w3.org/2000/svg">
<path fill-rule="evenodd" clip-rule="evenodd" d="M6.75028 3.00105C6.35279 3.00105 5.97158 3.15895 5.69051 3.44002C5.40944 3.72109 5.25153 4.1023 5.25153 4.49979V19.4998C5.25153 19.8973 5.40944 20.2785 5.69051 20.5596C5.97157 20.8406 6.35279 20.9985 6.75028 20.9985H17.2503C17.6478 20.9985 18.029 20.8406 18.3101 20.5596C18.5911 20.2785 18.749 19.8973 18.749 19.4998V10.5018H13.5003C12.9032 10.5018 12.3305 10.2646 11.9083 9.84236C11.4861 9.42013 11.2489 8.84746 11.2489 8.25033V3.00105H6.75028ZM12.7514 4.06331L17.6873 8.99929H13.5003C13.3017 8.99929 13.1112 8.92038 12.9707 8.77993C12.8303 8.63947 12.7514 8.44897 12.7514 8.25033V4.06331ZM4.62807 2.37758C5.19092 1.81474 5.9543 1.49854 6.75028 1.49854H11.3792C11.976 1.49863 12.5486 1.73573 12.9707 2.15773L19.5923 8.77936C20.0143 9.20145 20.2514 9.77391 20.2515 10.3708V19.4998C20.2515 20.2958 19.9353 21.0592 19.3725 21.622C18.8096 22.1848 18.0463 22.5011 17.2503 22.5011H6.75028C5.9543 22.5011 5.19092 22.1848 4.62807 21.622C4.06523 21.0592 3.74902 20.2958 3.74902 19.4998V4.49979C3.74902 3.70381 4.06523 2.94043 4.62807 2.37758Z" fill="#CBCFD2"/>
</svg>
