<svg width="24" height="24" viewBox="0 0 24 24" fill="none" xmlns="http://www.w3.org/2000/svg">
<path fill-rule="evenodd" clip-rule="evenodd" d="M12.0001 1.49878C12.415 1.49878 12.7514 1.83513 12.7514 2.25003V14.6849L15.2179 12.2185C15.5112 11.9251 15.9869 11.9251 16.2803 12.2185C16.5737 12.5118 16.5737 12.9875 16.2803 13.2809L12.5298 17.0314C12.2364 17.3248 11.7607 17.3248 11.4673 17.0314L7.71678 13.2809C7.4234 12.9875 7.4234 12.5118 7.71678 12.2185C8.01016 11.9251 8.48583 11.9251 8.77922 12.2185L11.2489 14.6881V2.25003C11.2489 1.83513 11.5852 1.49878 12.0001 1.49878ZM6.37528 9.00117C6.07724 9.00117 5.79141 9.11957 5.58067 9.33031C5.36993 9.54105 5.25153 9.82688 5.25153 10.1249V19.8749C5.25153 20.173 5.36993 20.4588 5.58067 20.6695C5.79141 20.8803 6.07724 20.9987 6.37528 20.9987H17.6253C17.9233 20.9987 18.2091 20.8803 18.4199 20.6695C18.6306 20.4588 18.749 20.173 18.749 19.8749V10.1249C18.749 9.82688 18.6306 9.54105 18.4199 9.33031C18.2091 9.11957 17.9233 9.00117 17.6253 9.00117H15.7503C15.3354 9.00117 14.999 8.66483 14.999 8.24992C14.999 7.83501 15.3354 7.49866 15.7503 7.49866H17.6253C18.3218 7.49866 18.9898 7.77536 19.4823 8.26788C19.9748 8.76039 20.2515 9.42839 20.2515 10.1249V19.8749C20.2515 20.5714 19.9748 21.2394 19.4823 21.732C18.9898 22.2245 18.3218 22.5012 17.6253 22.5012H6.37528C5.67875 22.5012 5.01075 22.2245 4.51824 21.732C4.02572 21.2394 3.74902 20.5714 3.74902 19.8749V10.1249C3.74902 9.42839 4.02572 8.76039 4.51824 8.26788C5.01075 7.77536 5.67875 7.49866 6.37528 7.49866H8.25028C8.66519 7.49866 9.00153 7.83501 9.00153 8.24992C9.00153 8.66483 8.66519 9.00117 8.25028 9.00117H6.37528Z" fill="#F7F9FD"/>
</svg>
