<svg width="16" height="16" viewBox="0 0 16 16" fill="none" xmlns="http://www.w3.org/2000/svg">
<path fill-rule="evenodd" clip-rule="evenodd" d="M14.0028 1.50098C14.8314 1.50098 15.503 2.17265 15.503 3.00119V11.0029C15.503 11.8315 14.8314 12.5032 14.0028 12.5032H9.82099L9.94597 13.5031H11.5015C11.7777 13.5031 12.0015 13.7269 12.0015 14.0031C12.0015 14.2792 11.7777 14.5031 11.5015 14.5031H9.54776C9.53354 14.5043 9.51921 14.5049 9.50481 14.5049H6.50195C6.48756 14.5049 6.47323 14.5043 6.459 14.5031H4.5C4.22386 14.5031 4 14.2792 4 14.0031C4 13.7269 4.22386 13.5031 4.5 13.5031H6.06079L6.18578 12.5032H2.00022C1.17167 12.5032 0.5 11.8315 0.5 11.0029V3.00119C0.5 2.17265 1.17167 1.50098 2.00022 1.50098H14.0028ZM1.5 3.00119C1.5 2.72493 1.72396 2.50098 2.00022 2.50098H14.0028C14.2791 2.50098 14.503 2.72493 14.503 3.00119V9.00244H1.5V3.00119Z" fill="#CBCFD2"/>
</svg>
