<svg width="24" height="24" viewBox="0 0 24 24" fill="none" xmlns="http://www.w3.org/2000/svg">
<path d="M19.9981 14.3534C20.4211 14.4626 20.6786 14.8954 20.5358 15.3083C19.8977 17.1537 18.7214 18.773 17.1504 19.9516C15.3679 21.2889 13.1835 21.9792 10.9567 21.9088C8.72988 21.8384 6.59336 21.0116 4.89872 19.5645C3.20408 18.1173 2.05229 16.136 1.63289 13.9466C1.2135 11.7572 1.55149 9.4902 2.59125 7.51861C3.63101 5.54703 5.31057 3.98836 7.35355 3.09911C9.39653 2.20986 11.6812 2.04301 13.8316 2.62602C15.7267 3.13985 17.4181 4.20914 18.6929 5.68765C18.713 5.71095 18.7313 5.73507 18.7478 5.75988L20.4705 4.03716C20.9431 3.56365 21.7508 3.89933 21.7508 4.56786V9.75204C21.7508 9.95098 21.6718 10.1418 21.5311 10.2824C21.3905 10.4231 21.1997 10.5021 21.0007 10.5021H15.8166C15.148 10.5021 14.8133 9.69437 15.2859 9.22181L17.6767 6.83093C17.578 6.78074 17.487 6.71163 17.4102 6.62528C16.3513 5.43532 14.9656 4.57387 13.4177 4.15422C11.6143 3.66525 9.69816 3.80518 7.98476 4.55098C6.27135 5.29678 4.86273 6.604 3.99071 8.25753C3.11869 9.91106 2.83522 11.8124 3.18696 13.6486C3.53869 15.4848 4.50468 17.1464 5.92594 18.3601C7.3472 19.5739 9.13905 20.2673 11.0066 20.3263C12.8742 20.3853 14.7062 19.8064 16.2012 18.6848C17.4844 17.7221 18.4536 16.4089 18.9977 14.9113C19.1469 14.5005 19.5749 14.2441 19.9981 14.3534Z" fill="#CBCFD2"/>
</svg>
