<svg width="16" height="16" viewBox="0 0 16 16" fill="none" xmlns="http://www.w3.org/2000/svg">
<path fill-rule="evenodd" clip-rule="evenodd" d="M2 4.10095V4.42054C2.2553 4.18205 2.609 4.00103 3.00033 4.00103H13.0025C13.3938 4.00103 13.7475 4.18205 14.0028 4.42054V4.10095C14.0028 3.21177 13.2915 2.50049 12.4343 2.50049H3.56858C2.71135 2.50049 2 3.21177 2 4.10095ZM14.0027 6.00125H13.9999V5.50125C13.9999 5.41381 13.9511 5.28452 13.8338 5.16715C13.7164 5.04979 13.5871 5.00103 13.4997 5.00103H2.5001C2.41266 5.00103 2.28337 5.04979 2.166 5.16715C2.04863 5.28452 1.99988 5.41381 1.99988 5.50125V6.00125L2 12.5028C2 13.0552 2.44786 13.5031 3.00033 13.5031H13.0025C13.555 13.5031 14.0028 13.0552 14.0028 12.5028L14.0027 6.00125ZM1 3.50081C1 2.39606 1.89558 1.50049 3.00033 1.50049H13.0025C14.1073 1.50049 15.0028 2.39607 15.0028 3.50081V12.5028C15.0028 13.6075 14.1073 14.5031 13.0025 14.5031H3.00033C1.89558 14.5031 1 13.6075 1 12.5028V3.50081Z" fill="#CBCFD2"/>
</svg>
