<svg width="16" height="16" viewBox="0 0 16 16" fill="none" xmlns="http://www.w3.org/2000/svg">
<path fill-rule="evenodd" clip-rule="evenodd" d="M8.00153 0.998291C8.21854 0.998291 8.41087 1.13802 8.47795 1.3444L9.99082 5.99938H15.0031C15.2226 5.99938 15.4166 6.14233 15.4815 6.35203C15.5465 6.56173 15.4674 6.78931 15.2864 6.91347L11.2229 9.69983L12.7896 14.3419C12.8593 14.5484 12.7875 14.7763 12.612 14.9055C12.4364 15.0347 12.1975 15.0356 12.021 14.9077L8.00153 11.995L3.98203 14.9077C3.80555 15.0356 3.56662 15.0347 3.3911 14.9055C3.21558 14.7763 3.14375 14.5484 3.21345 14.3419L4.78014 9.69983L0.716708 6.91347C0.535646 6.78931 0.456523 6.56173 0.521514 6.35203C0.586506 6.14233 0.780466 5.99938 1.00001 5.99938H6.01225L7.52511 1.3444C7.59219 1.13802 7.78452 0.998291 8.00153 0.998291ZM8.00153 3.11997L6.85259 6.65516C6.78552 6.86155 6.59319 7.00127 6.37618 7.00127H2.61635L5.65926 9.08784C5.84414 9.21461 5.92229 9.44877 5.8506 9.66117L4.66435 13.176L7.70759 10.9707C7.88295 10.8437 8.12011 10.8437 8.29547 10.9707L11.3387 13.176L10.1525 9.66117C10.0808 9.44877 10.1589 9.21461 10.3438 9.08784L13.3867 7.00127H9.62688C9.40987 7.00127 9.21754 6.86155 9.15047 6.65516L8.00153 3.11997Z" fill="#CBCFD2"/>
</svg>
