<svg width="25" height="16" viewBox="0 0 25 16" fill="none" xmlns="http://www.w3.org/2000/svg">
<path fill-rule="evenodd" clip-rule="evenodd" d="M6.49495 0.702393C5.78433 0.702393 5.20827 1.27863 5.20827 1.98946C5.20827 2.70029 5.78433 3.27653 6.49495 3.27653H9.2052L8.35539 8.23778C7.53884 7.70597 6.57388 7.32585 5.41612 7.32585C3.6646 7.32585 2.39816 7.80697 1.57292 8.64294C0.761629 9.46477 0.554803 10.4501 0.546616 11.1117C0.538018 11.8067 0.769508 12.7924 1.48275 13.6248C2.23744 14.5056 3.42222 15.0879 5.05981 15.0879C7.42194 15.0879 8.99697 14.2115 9.78708 13.1625C10.0852 13.461 10.4006 13.7541 10.732 14.0177C11.5086 14.6353 12.4546 15.1616 13.6314 15.2873C14.6147 15.3923 15.3578 14.6699 15.5022 13.8643L16.4675 8.47817H20.6093C21.3192 8.47817 21.8948 7.90186 21.8948 7.19095C21.8948 6.48003 21.3192 5.90373 20.6093 5.90373L16.9289 5.90373L17.3997 3.27653H23.1426C23.8532 3.27653 24.4293 2.70029 24.4293 1.98946C24.4293 1.27863 23.8532 0.702393 23.1426 0.702393H16.7207C15.8676 0.702393 15.1371 1.31377 14.9866 2.15371L13.1306 12.5093C12.8686 12.3884 12.6064 12.2198 12.3335 12.0028C11.8143 11.5898 11.3333 11.0676 10.7664 10.4522L10.7631 10.4486C10.7181 10.3997 10.6725 10.3502 10.6264 10.3002L10.6151 10.2879L11.9042 2.76231C12.0886 1.68576 11.2596 0.702393 10.1677 0.702393H6.49495ZM5.41612 9.89999C6.31114 9.89999 7.02495 10.3418 7.85826 11.14L7.7944 11.5128C7.6774 11.7148 7.05526 12.5137 5.05981 12.5137C4.07653 12.5137 3.64267 12.1901 3.43661 11.9496C3.1891 11.6608 3.11772 11.3099 3.11978 11.1436C3.12225 10.9439 3.18662 10.6718 3.404 10.4516C3.60741 10.2456 4.12711 9.89999 5.41612 9.89999Z" fill="#ECEDEE"/>
</svg>
