<svg width="40" height="40" viewBox="0 0 40 40" fill="none" xmlns="http://www.w3.org/2000/svg">
<path fill-rule="evenodd" clip-rule="evenodd" d="M33.4806 2.67304C34.2362 2.97282 35.0039 3.73011 35.0039 4.84441V14.5289C35.1115 14.5291 35.2209 14.5432 35.3297 14.5727L35.0039 15.7765C35.3297 14.5727 35.3291 14.5725 35.3297 14.5727L35.3348 14.5741L35.3404 14.5757L35.3532 14.5793L35.3847 14.5887C35.4081 14.5959 35.4367 14.6051 35.4697 14.6167C35.5354 14.6396 35.6199 14.6721 35.7171 14.7163C35.9088 14.8035 36.1654 14.9432 36.4262 15.1578C36.9737 15.6083 37.5107 16.374 37.5107 17.5083C37.5107 18.6427 36.9737 19.4084 36.4262 19.8589C36.1654 20.0735 35.9088 20.2132 35.7171 20.3004C35.6199 20.3446 35.5354 20.3771 35.4697 20.4C35.4367 20.4116 35.4081 20.4208 35.3847 20.428L35.3532 20.4374L35.3404 20.441L35.3348 20.4426L35.3322 20.4433C35.3316 20.4435 35.3297 20.444 35.0039 19.2402L35.3297 20.444C35.2209 20.4734 35.1115 20.4876 35.0039 20.4878V30.1882C35.0039 31.3629 34.1466 32.0796 33.4178 32.3449C32.7555 32.586 31.5993 32.6484 30.8883 31.7307L30.8808 31.7215L30.829 31.6583C30.7821 31.6015 30.7108 31.516 30.6168 31.406C30.4288 31.1859 30.1507 30.8683 29.7964 30.4855C29.0863 29.7185 28.078 28.6986 26.8828 27.6823C24.4235 25.5912 21.4461 23.7535 18.7534 23.7528V25.0005C18.7534 25.6641 18.4898 26.3006 18.0205 26.7699C17.5652 27.2253 16.9523 27.487 16.31 27.5021C16.4904 29.437 17.0717 30.8476 17.6383 32.2223C17.9139 32.8911 18.186 33.5515 18.4068 34.2597L18.4076 34.2622C18.5235 34.6366 18.5498 35.0331 18.4843 35.4196C18.4189 35.8061 18.2636 36.1718 18.0309 36.4872C17.7983 36.8027 17.4947 37.0591 17.1448 37.2357C16.795 37.4123 16.4086 37.5042 16.0168 37.5042C16.0166 37.5042 16.0169 37.5042 16.0168 37.5042H11.8756C11.3777 37.5042 10.9002 37.3064 10.5482 36.9544C10.1961 36.6023 9.99837 36.1249 9.99837 35.627V23.7528H8.80961C8.79099 23.7536 8.77227 23.754 8.75345 23.754C8.73462 23.754 8.7159 23.7536 8.69728 23.7528H6.25182C5.58823 23.7528 4.95181 23.4891 4.48257 23.0199C4.01334 22.5507 3.74973 21.9143 3.74973 21.2507V20.6619C3.6416 20.5655 3.53 20.4529 3.41981 20.3221C2.90755 19.7138 2.5 18.7989 2.5 17.5024C2.5 16.2059 2.90755 15.291 3.41981 14.6827C3.53 14.5518 3.6416 14.4392 3.74973 14.3428V13.7507C3.74973 13.0871 4.01334 12.4506 4.48257 11.9814C4.95181 11.5122 5.58822 11.2486 6.25182 11.2486H8.73179C8.73899 11.2484 8.74621 11.2484 8.75345 11.2484C8.76068 11.2484 8.7679 11.2484 8.7751 11.2486H18.7518C21.4468 11.2486 24.4255 9.41723 26.8847 7.33494C28.0799 6.32294 29.0882 5.30735 29.7982 4.54353C30.1525 4.16245 30.4306 3.84611 30.6185 3.62698C30.7124 3.51746 30.7837 3.43238 30.8306 3.3758L30.8824 3.31288L30.8932 3.2997C31.6151 2.38567 32.7414 2.37977 33.4806 2.67304ZM7.50135 13.7527H6.25391V14.9387C6.25596 14.98 6.25594 15.0211 6.25391 15.062V19.9427C6.25594 19.9836 6.25596 20.0248 6.25391 20.0661V21.2486H7.50135V13.7527ZM10.0055 21.2486V13.7527H18.7513V21.2486H16.3028C16.2856 21.2482 16.2684 21.248 16.2512 21.248H15.001C14.9887 21.248 14.9764 21.2482 14.9642 21.2486H11.2873C11.2751 21.2482 11.2628 21.248 11.2505 21.248C11.2381 21.248 11.2259 21.2482 11.2136 21.2486H10.0055ZM12.5026 23.7528V35H16.0146C15.8832 34.5797 15.6832 34.0947 15.4554 33.5423C14.7395 31.8061 13.7489 29.4038 13.7489 26.2507C13.7489 25.5592 14.3095 24.9986 15.001 24.9986H16.2493V23.7528H12.5026ZM21.2555 21.5966C24.0037 22.336 26.5711 24.1303 28.5049 25.7745C29.7958 26.8721 30.8766 27.9661 31.6341 28.7844C32.0009 29.1806 32.2937 29.5141 32.4997 29.7548V5.28008C32.2935 5.51994 32.0001 5.85285 31.6323 6.2485C30.8747 7.06349 29.7939 8.15298 28.5029 9.24606C26.569 10.8836 24.0023 12.6697 21.2555 13.406V21.5966ZM32.8478 4.86463C32.8477 4.86479 32.8479 4.86448 32.8478 4.86463L31.8785 4.08543C32.5587 4.63227 32.7622 4.79555 32.8226 4.84441C32.8429 4.86079 32.8469 4.86384 32.8478 4.86463ZM32.8489 30.1735C32.8487 30.1733 32.849 30.1736 32.8489 30.1735L31.8721 30.9561C32.589 30.3823 32.7807 30.2291 32.8315 30.1882C32.8449 30.1773 32.8479 30.1743 32.8489 30.1735ZM35.0039 17.5797C35.0056 17.5574 35.0065 17.5336 35.0065 17.5083C35.0065 17.4831 35.0056 17.4593 35.0039 17.437V17.5797Z" fill="white"/>
</svg>
