<svg width="24" height="24" viewBox="0 0 24 24" fill="none" xmlns="http://www.w3.org/2000/svg">
<path fill-rule="evenodd" clip-rule="evenodd" d="M2.99756 7.49955C2.99756 7.08464 3.33391 6.74829 3.74881 6.74829H20.2488C20.6637 6.74829 21.0001 7.08464 21.0001 7.49955C21.0001 7.91445 20.6637 8.2508 20.2488 8.2508H3.74881C3.33391 8.2508 2.99756 7.91445 2.99756 7.49955ZM2.99756 11.9997C2.99756 11.5848 3.33391 11.2484 3.74881 11.2484H20.2488C20.6637 11.2484 21.0001 11.5848 21.0001 11.9997C21.0001 12.4146 20.6637 12.7509 20.2488 12.7509H3.74881C3.33391 12.7509 2.99756 12.4146 2.99756 11.9997ZM2.99756 16.4998C2.99756 16.0849 3.33391 15.7485 3.74881 15.7485H20.2488C20.6637 15.7485 21.0001 16.0849 21.0001 16.4998C21.0001 16.9147 20.6637 17.251 20.2488 17.251H3.74881C3.33391 17.251 2.99756 16.9147 2.99756 16.4998Z" fill="#CBCFD2"/>
</svg>
