<svg width="28" height="28" viewBox="0 0 28 28" fill="none" xmlns="http://www.w3.org/2000/svg">
<path fill-rule="evenodd" clip-rule="evenodd" d="M3.49756 8.74951C3.49756 8.26545 3.88996 7.87305 4.37402 7.87305H23.624C24.1081 7.87305 24.5005 8.26545 24.5005 8.74951C24.5005 9.23357 24.1081 9.62598 23.624 9.62598H4.37402C3.88996 9.62598 3.49756 9.23357 3.49756 8.74951ZM3.49756 13.9997C3.49756 13.5156 3.88996 13.1232 4.37402 13.1232H23.624C24.1081 13.1232 24.5005 13.5156 24.5005 13.9997C24.5005 14.4837 24.1081 14.8761 23.624 14.8761H4.37402C3.88996 14.8761 3.49756 14.4837 3.49756 13.9997ZM3.49756 19.2498C3.49756 18.7657 3.88996 18.3733 4.37402 18.3733H23.624C24.1081 18.3733 24.5005 18.7657 24.5005 19.2498C24.5005 19.7338 24.1081 20.1263 23.624 20.1263H4.37402C3.88996 20.1263 3.49756 19.7338 3.49756 19.2498Z" fill="#CBCFD2"/>
</svg>
