<svg width="32" height="32" viewBox="0 0 32 32" fill="none" xmlns="http://www.w3.org/2000/svg">
<g id="menu">
<path id="Vector" fill-rule="evenodd" clip-rule="evenodd" d="M3.99707 9.99942C3.99707 9.44621 4.44553 8.99774 4.99874 8.99774H26.9988C27.552 8.99774 28.0004 9.44621 28.0004 9.99942C28.0004 10.5526 27.552 11.0011 26.9988 11.0011H4.99874C4.44553 11.0011 3.99707 10.5526 3.99707 9.99942ZM3.99707 15.9996C3.99707 15.4464 4.44553 14.9979 4.99874 14.9979H26.9988C27.552 14.9979 28.0004 15.4464 28.0004 15.9996C28.0004 16.5528 27.552 17.0012 26.9988 17.0012H4.99874C4.44553 17.0012 3.99707 16.5528 3.99707 15.9996ZM3.99707 21.9997C3.99707 21.4465 4.44553 20.9981 4.99874 20.9981H26.9988C27.552 20.9981 28.0004 21.4465 28.0004 21.9997C28.0004 22.5529 27.552 23.0014 26.9988 23.0014H4.99874C4.44553 23.0014 3.99707 22.5529 3.99707 21.9997Z" fill="#CBCFD2"/>
</g>
</svg>
