<svg width="64" height="64" viewBox="0 0 64 64" fill="none" xmlns="http://www.w3.org/2000/svg">
<path d="M50.5415 41.7818H42.5433C41.9911 41.7818 41.5435 42.2294 41.5435 42.7816V50.7798C41.5435 51.332 41.9911 51.7796 42.5433 51.7796H50.5415C51.0937 51.7796 51.5413 51.332 51.5413 50.7798V42.7816C51.5413 42.2294 51.0937 41.7818 50.5415 41.7818Z" fill="white"/>
<path d="M40.5437 33.7835H34.545C33.9928 33.7835 33.5452 34.2311 33.5452 34.7833V40.782C33.5452 41.3342 33.9928 41.7818 34.545 41.7818H40.5437C41.0959 41.7818 41.5435 41.3342 41.5435 40.782V34.7833C41.5435 34.2311 41.0959 33.7835 40.5437 33.7835Z" fill="white"/>
<path d="M58.5398 51.7796H52.5411C51.9889 51.7796 51.5413 52.2272 51.5413 52.7794V58.7781C51.5413 59.3302 51.9889 59.7779 52.5411 59.7779H58.5398C59.092 59.7779 59.5396 59.3302 59.5396 58.7781V52.7794C59.5396 52.2272 59.092 51.7796 58.5398 51.7796Z" fill="white"/>
<path d="M58.5398 33.7835H54.5407C53.9885 33.7835 53.5409 34.2311 53.5409 34.7833V38.7824C53.5409 39.3346 53.9885 39.7822 54.5407 39.7822H58.5398C59.092 39.7822 59.5396 39.3346 59.5396 38.7824V34.7833C59.5396 34.2311 59.092 33.7835 58.5398 33.7835Z" fill="white"/>
<path d="M38.5441 53.7792H34.545C33.9928 53.7792 33.5452 54.2268 33.5452 54.7789V58.7781C33.5452 59.3302 33.9928 59.7779 34.545 59.7779H38.5441C39.0963 59.7779 39.5439 59.3302 39.5439 58.7781V54.7789C39.5439 54.2268 39.0963 53.7792 38.5441 53.7792Z" fill="white"/>
<path d="M50.5415 11.7883H42.5433C41.9911 11.7883 41.5435 12.2359 41.5435 12.7881V20.7863C41.5435 21.3385 41.9911 21.7861 42.5433 21.7861H50.5415C51.0937 21.7861 51.5413 21.3385 51.5413 20.7863V12.7881C51.5413 12.2359 51.0937 11.7883 50.5415 11.7883Z" fill="white"/>
<path fill-rule="evenodd" clip-rule="evenodd" d="M33.5452 7.78917C33.5452 5.58051 35.3357 3.79004 37.5444 3.79004H55.5404C57.7491 3.79004 59.5396 5.58051 59.5396 7.78917V25.7853C59.5396 27.9939 57.7491 29.7844 55.5404 29.7844H37.5444C35.3357 29.7844 33.5452 27.9939 33.5452 25.7853V7.78917ZM55.5404 7.78917H37.5444V25.7853H55.5404V7.78917Z" fill="white"/>
<path d="M20.5481 11.7883H12.5498C11.9976 11.7883 11.55 12.2359 11.55 12.7881V20.7863C11.55 21.3385 11.9976 21.7861 12.5498 21.7861H20.5481C21.1002 21.7861 21.5478 21.3385 21.5478 20.7863V12.7881C21.5478 12.2359 21.1002 11.7883 20.5481 11.7883Z" fill="white"/>
<path fill-rule="evenodd" clip-rule="evenodd" d="M3.55176 7.78917C3.55176 5.58051 5.34223 3.79004 7.55089 3.79004H25.547C27.7556 3.79004 29.5461 5.58051 29.5461 7.78917V25.7853C29.5461 27.9939 27.7556 29.7844 25.547 29.7844H7.55089C5.34223 29.7844 3.55176 27.9939 3.55176 25.7853V7.78917ZM25.547 7.78917H7.55089V25.7853H25.547V7.78917Z" fill="white"/>
<path d="M20.5481 41.7818H12.5498C11.9976 41.7818 11.55 42.2294 11.55 42.7816V50.7798C11.55 51.332 11.9976 51.7796 12.5498 51.7796H20.5481C21.1002 51.7796 21.5478 51.332 21.5478 50.7798V42.7816C21.5478 42.2294 21.1002 41.7818 20.5481 41.7818Z" fill="white"/>
<path fill-rule="evenodd" clip-rule="evenodd" d="M3.55176 37.7826C3.55176 35.574 5.34223 33.7835 7.55089 33.7835H25.547C27.7556 33.7835 29.5461 35.574 29.5461 37.7826V55.7787C29.5461 57.9874 27.7556 59.7779 25.547 59.7779H7.55089C5.34223 59.7779 3.55176 57.9874 3.55176 55.7787V37.7826ZM25.547 37.7826H7.55089V55.7787H25.547V37.7826Z" fill="white"/>
</svg>
