<svg width="64" height="64" viewBox="0 0 64 64" fill="none" xmlns="http://www.w3.org/2000/svg">
<path d="M53.3283 38.2757C54.4563 38.567 55.143 39.7211 54.7623 40.8222C53.0606 45.7432 49.9237 50.0613 45.7344 53.2043C40.981 56.7704 35.1559 58.6111 29.2178 58.4235C23.2797 58.2358 17.5823 56.031 13.0632 52.1719C8.54421 48.3128 5.47277 43.0293 4.35438 37.191C3.236 31.3526 4.13732 25.3072 6.91 20.0496C9.68268 14.7921 14.1615 10.6356 19.6095 8.26428C25.0574 5.89295 31.1499 5.44802 36.8842 7.00273C41.938 8.37293 46.4482 11.2244 49.8478 15.1671C49.9013 15.2292 49.9501 15.2935 49.9941 15.3597L54.588 10.7658C55.8482 9.50308 58.0023 10.3982 58.0023 12.181V26.0054C58.0023 26.5359 57.7915 27.0447 57.4164 27.4198C57.0413 27.795 56.5325 28.0057 56.002 28.0057H42.1775C40.3948 28.0057 39.5021 25.8517 40.7623 24.5915L47.138 18.2158C46.8746 18.082 46.632 17.8977 46.4271 17.6674C43.6035 14.4942 39.9082 12.197 35.7806 11.0779C30.9714 9.77401 25.8618 10.1472 21.2927 12.1359C16.7236 14.1247 12.9673 17.6107 10.6419 22.0201C8.3165 26.4295 7.56059 31.4996 8.49855 36.3962C9.43651 41.2927 12.0125 45.7239 15.8025 48.9604C19.5925 52.1969 24.3708 54.0461 29.351 54.2034C34.3312 54.3608 39.2166 52.817 43.2031 49.8262C46.625 47.259 49.2097 43.757 50.6605 39.7635C51.0585 38.668 52.1998 37.9844 53.3283 38.2757Z" fill="white"/>
</svg>
