<svg width="64" height="64" viewBox="0 0 64 64" fill="none" xmlns="http://www.w3.org/2000/svg">
<path fill-rule="evenodd" clip-rule="evenodd" d="M50.8156 10.0194C51.7464 9.42525 52.9827 9.69819 53.5769 10.6291C57.487 16.7548 59.8897 22.6753 59.8897 31.7005C59.8897 40.7165 57.4928 46.7678 53.5663 52.7885C52.963 53.7135 51.7241 53.9743 50.7991 53.371C49.8741 52.7678 49.6133 51.5289 50.2166 50.6039C53.7884 45.1271 55.8905 39.8233 55.8905 31.7005C55.8905 23.587 53.7942 18.4024 50.2059 12.7807C49.6118 11.8499 49.8847 10.6136 50.8156 10.0194ZM28.6466 11.7171C29.1989 11.671 29.7531 11.7787 30.2478 12.0284C30.7426 12.2781 31.1585 12.66 31.4493 13.1317C31.7402 13.6034 31.8948 14.1464 31.8958 14.7006L31.8958 14.7042V48.6968L31.8958 48.7005C31.8948 49.2546 31.7402 49.7977 31.4493 50.2694C31.1585 50.7411 30.7426 51.123 30.2478 51.3727C29.7531 51.6223 29.1989 51.7301 28.6466 51.6839C28.0944 51.6378 27.5657 51.4396 27.1193 51.1112C27.0914 51.0907 27.0641 51.0695 27.0373 51.0476L15.6182 41.6983C15.614 41.6984 15.6098 41.6984 15.6056 41.6984H6.9012C6.10573 41.6984 5.34283 41.3824 4.78034 40.8199C4.21786 40.2574 3.90186 39.4945 3.90186 38.699V24.7021C3.90186 23.9066 4.21786 23.1437 4.78034 22.5812C5.34283 22.0187 6.10573 21.7027 6.9012 21.7027H15.6183L27.0373 12.3535C27.0641 12.3316 27.0914 12.3104 27.1193 12.2899C27.5657 11.9615 28.0944 11.7633 28.6466 11.7171ZM27.8966 16.8185L18.1492 24.7991C17.4469 25.3867 16.5591 25.7066 15.6433 25.7018H7.90099V37.6992H15.5989C16.5194 37.694 17.4136 38.0073 18.1297 38.5861C18.133 38.5887 18.1362 38.5914 18.1395 38.594L27.8966 46.5826V16.8185ZM44.8846 15.9767C45.8383 15.42 47.0628 15.7418 47.6196 16.6955C50.2431 21.1896 51.8914 25.2607 51.8914 31.7005C51.8914 38.15 50.1715 42.262 47.6267 46.6933C47.0767 47.6509 45.8546 47.9814 44.8969 47.4315C43.9393 46.8815 43.6088 45.6593 44.1588 44.7017C46.4828 40.6548 47.8923 37.2335 47.8923 31.7005C47.8923 26.158 46.5412 22.7807 44.1659 18.7117C43.6091 17.758 43.9309 16.5335 44.8846 15.9767ZM38.9845 21.9215C39.968 21.4192 41.1725 21.8093 41.6748 22.7928C43.0459 25.4775 43.8932 28.4041 43.8932 31.7005C43.8932 34.9641 43.0096 37.9524 41.6806 40.5967C41.1847 41.5834 39.9828 41.9813 38.9961 41.4854C38.0094 40.9895 37.6115 39.7876 38.1074 38.8009C39.2129 36.6013 39.894 34.2257 39.894 31.7005C39.894 29.1282 39.2416 26.821 38.1133 24.6118C37.611 23.6283 38.0011 22.4238 38.9845 21.9215Z" fill="white"/>
</svg>
