<svg width="16" height="16" viewBox="0 0 16 16" fill="none" xmlns="http://www.w3.org/2000/svg">
<path d="M12.0773 7.61352C11.803 7.49992 11.5012 7.47019 11.2101 7.52811C10.9189 7.58602 10.6515 7.72898 10.4416 7.93889C10.2317 8.1488 10.0887 8.41624 10.0308 8.7074C9.97288 8.99856 10.0026 9.30035 10.1162 9.57461C10.2298 9.84888 10.4222 10.0833 10.669 10.2482C10.9159 10.4131 11.206 10.5012 11.5029 10.5012C11.901 10.5012 12.2828 10.343 12.5642 10.0616C12.8457 9.78007 13.0039 9.3983 13.0039 9.00022C13.0039 8.70336 12.9158 8.41317 12.7509 8.16634C12.586 7.91951 12.3516 7.72712 12.0773 7.61352Z" fill="#CBCFD2"/>
<path fill-rule="evenodd" clip-rule="evenodd" d="M11.8078 1.56435C11.5154 1.48927 11.2101 1.47926 10.9135 1.53502L2.68614 2.93917L2.67668 2.94097C2.20483 3.03089 1.77916 3.28265 1.47307 3.65283C1.16706 4.02293 0.999754 4.48834 1 4.96856V12.0011C1 13.1059 1.89558 14.0015 3.00033 14.0015H13.0025C14.1073 14.0015 15.0028 13.1059 15.0028 12.0011V5.99984C15.0028 5.01623 14.2929 4.19843 13.3575 4.03091V3.56169C13.3574 3.25812 13.2903 2.95832 13.161 2.68367C13.0317 2.40902 12.8433 2.1663 12.6094 1.97282C12.3755 1.77933 12.1018 1.63986 11.8078 1.56435ZM3.00033 4.99951C2.44815 4.99951 2.00046 5.44691 2 5.99898L2 12.0011C2 12.5536 2.44786 13.0015 3.00033 13.0015H13.0025C13.555 13.0015 14.0028 12.5536 14.0028 12.0011V5.99984C14.0028 5.44737 13.555 4.99951 13.0025 4.99951H3.00033ZM2.85961 3.92412C2.73457 3.94848 2.6159 3.99491 2.50876 4.06036C2.66603 4.02062 2.83071 3.99951 3.00033 3.99951H12.3575V3.56185C12.3574 3.4055 12.3228 3.25109 12.2562 3.10963C12.1896 2.96812 12.0926 2.84306 11.9721 2.74337C11.8515 2.64368 11.7105 2.57182 11.559 2.53292C11.4075 2.49401 11.2493 2.48902 11.0957 2.5183L11.0862 2.52001L2.85961 3.92412Z" fill="#CBCFD2"/>
</svg>
