<svg width="40" height="40" viewBox="0 0 40 40" fill="none" xmlns="http://www.w3.org/2000/svg">
<path d="M28.1289 11.2518C28.1289 12.6335 27.0088 13.7536 25.627 13.7536C24.2453 13.7536 23.1252 12.6335 23.1252 11.2518C23.1252 9.87003 24.2453 8.74991 25.627 8.74991C27.0088 8.74991 28.1289 9.87003 28.1289 11.2518Z" fill="white"/>
<path d="M20.0032 11.2521C20.0032 12.6338 18.8831 13.7539 17.5014 13.7539C16.1196 13.7539 14.9995 12.6338 14.9995 11.2521C14.9995 9.87033 16.1196 8.75022 17.5014 8.75022C18.8831 8.75022 20.0032 9.87033 20.0032 11.2521Z" fill="white"/>
<path d="M11.2527 18.7534C12.6344 18.7534 13.7546 17.6333 13.7546 16.2516C13.7546 14.8699 12.6344 13.7497 11.2527 13.7497C9.87099 13.7497 8.75088 14.8699 8.75088 16.2516C8.75088 17.6333 9.87099 18.7534 11.2527 18.7534Z" fill="white"/>
<path d="M11.8776 26.8001C13.2593 26.8001 14.3794 25.68 14.3794 24.2982C14.3794 22.9165 13.2593 21.7964 11.8776 21.7964C10.4959 21.7964 9.37574 22.9165 9.37574 24.2982C9.37574 25.68 10.4959 26.8001 11.8776 26.8001Z" fill="white"/>
<path d="M20.002 32.4271C22.0746 32.4271 23.7548 30.747 23.7548 28.6744C23.7548 26.6018 22.0746 24.9216 20.002 24.9216C17.9294 24.9216 16.2492 26.6018 16.2492 28.6744C16.2492 30.747 17.9294 32.4271 20.002 32.4271Z" fill="white"/>
<path fill-rule="evenodd" clip-rule="evenodd" d="M35.1354 25.5345L35.1272 25.5268C34.1034 24.5807 32.7277 24.3641 32.1683 24.2761C32.1248 24.2693 32.0857 24.2631 32.0526 24.2575L32.0452 24.2563C31.6995 24.1992 31.5951 24.1607 31.5778 24.1536C31.5593 24.1414 31.5107 24.1057 31.4135 24.0187L31.4066 24.0125C31.395 24.0022 31.3848 23.9925 31.3757 23.9835C31.3847 23.9746 31.3952 23.9647 31.4066 23.9545L33.7696 21.8567L33.7716 21.8549C38.4079 17.7562 38.4072 10.927 33.7696 6.82906L33.7662 6.82613C30.617 4.05446 26.4736 2.74963 22.2957 2.74963C17.42 2.74963 12.3361 4.52017 8.39846 8.01001C0.863193 14.6711 0.8636 25.6959 8.39968 32.3566C12.1102 35.6376 17.035 37.2141 21.8185 37.2487H21.9675C26.7429 37.2487 31.5706 35.7116 35.0839 32.5895C36.2448 31.5635 36.6546 30.149 36.615 28.9227C36.5764 27.726 36.1055 26.4401 35.1354 25.5345ZM32.28 20.171L29.9128 22.2726C28.7957 23.2648 28.7957 24.7023 29.9128 25.6945C30.4363 26.1632 30.78 26.3273 31.6785 26.4757L31.7288 26.4842C32.3658 26.5914 33.098 26.7146 33.6003 27.1788C34.5293 28.046 34.7175 29.9132 33.5925 30.9054C30.5613 33.6007 26.2957 34.9991 21.9675 34.9991H21.8347C17.5066 34.9679 13.1316 33.5382 9.8894 30.671C3.36596 24.9054 3.36596 15.4601 9.8894 9.69446C13.3972 6.58508 17.9441 4.99914 22.2957 4.99914C26.0222 4.99914 29.6082 6.16321 32.28 8.51477C35.905 11.7179 35.905 16.9679 32.28 20.171Z" fill="white"/>
</svg>
