<svg width="64" height="64" viewBox="0 0 64 64" fill="none" xmlns="http://www.w3.org/2000/svg">
<path fill-rule="evenodd" clip-rule="evenodd" d="M31.998 10.0028C24.8202 10.0028 19.0014 15.8216 19.0014 22.9994C19.0014 23.3724 19.0171 23.7417 19.0479 24.1068C19.6873 24.0338 20.3375 23.9963 20.9965 23.9963C25.1911 23.9963 29.031 25.5152 31.9961 28.033C34.9612 25.5152 38.801 23.9963 42.9956 23.9963C43.6559 23.9963 44.3074 24.034 44.9481 24.1072C44.979 23.742 44.9947 23.3726 44.9947 22.9994C44.9947 15.8216 39.1759 10.0028 31.998 10.0028ZM48.8799 25.0421C48.9601 24.3724 49.0014 23.6907 49.0014 22.9994C49.0014 13.6088 41.3887 5.99609 31.998 5.99609C22.6073 5.99609 14.9947 13.6088 14.9947 22.9994C14.9947 23.6902 15.0359 24.3714 15.1159 25.0407C8.62327 27.4339 3.99316 33.6761 3.99316 40.9997C3.99316 50.3904 11.6058 58.003 20.9965 58.003C25.1911 58.003 29.031 56.4841 31.9961 53.9664C34.9612 56.4841 38.801 58.003 42.9956 58.003C52.3863 58.003 59.999 50.3904 59.999 40.9997C59.999 33.6775 55.3707 27.4363 48.8799 25.0421ZM43.9811 28.0398C43.6558 28.0154 43.3272 28.003 42.9956 28.003C39.8554 28.003 36.9753 29.1167 34.7287 30.9707C35.6337 32.2077 36.3755 33.5716 36.9226 35.0307C40.1011 33.7283 42.6491 31.2029 43.9811 28.0398ZM37.8786 38.9584C42.5087 37.2518 46.1916 33.5877 47.9236 28.9699C52.6579 30.9113 55.9923 35.5661 55.9923 40.9997C55.9923 48.1775 50.1735 53.9963 42.9956 53.9963C39.8554 53.9963 36.9753 52.8826 34.7287 51.0287C36.7856 48.2171 37.9999 44.7502 37.9999 40.9997C37.9999 40.3089 37.9587 39.6277 37.8786 38.9584ZM32.9798 35.9596C32.7027 35.3017 32.3731 34.6713 31.9961 34.0739C31.6191 34.6713 31.2895 35.3015 31.0125 35.9593C31.3378 35.9837 31.6665 35.9961 31.998 35.9961C32.3283 35.9961 32.6557 35.9838 32.9798 35.9596ZM30.0455 39.8919C30.6862 39.9652 31.3377 40.0028 31.998 40.0028C32.657 40.0028 33.3072 39.9653 33.9467 39.8923C33.9775 40.2574 33.9932 40.6267 33.9932 40.9997C33.9932 43.5456 33.2611 45.9205 31.9961 47.9255C30.731 45.9205 29.999 43.5456 29.999 40.9997C29.999 40.6265 30.0147 40.2571 30.0455 39.8919ZM27.07 35.0293C27.6171 33.5707 28.3588 32.2073 29.2634 30.9707C27.0169 29.1167 24.1368 28.003 20.9965 28.003C20.6662 28.003 20.3389 28.0153 20.0148 28.0395C21.3464 31.2016 23.893 33.7264 27.07 35.0293ZM16.0719 28.9685C17.8032 33.5857 21.4849 37.2496 26.1137 38.9571C26.0335 39.6267 25.9923 40.3084 25.9923 40.9997C25.9923 44.7502 27.2066 48.2171 29.2635 51.0286C27.0169 52.8826 24.1368 53.9963 20.9965 53.9963C13.8187 53.9963 7.99986 48.1775 7.99986 40.9997C7.99986 35.5648 11.3359 30.909 16.0719 28.9685Z" fill="white"/>
</svg>
