<svg width="38" height="24" viewBox="0 0 38 24" fill="none" xmlns="http://www.w3.org/2000/svg">
<path fill-rule="evenodd" clip-rule="evenodd" d="M9.74218 1.05371C8.67626 1.05371 7.81216 1.91807 7.81216 2.98431C7.81216 4.05056 8.67626 4.91492 9.74218 4.91492H13.8076L12.5328 12.3568C11.308 11.5591 9.86057 10.9889 8.12393 10.9889C5.49665 10.9889 3.597 11.7106 2.35913 12.9645C1.1422 14.1973 0.831961 15.6753 0.81968 16.6677C0.806782 17.7102 1.15402 19.1888 2.22388 20.4374C3.35592 21.7585 5.13308 22.6319 7.58947 22.6319C11.1327 22.6319 13.4952 21.3174 14.6804 19.7439C15.1275 20.1916 15.6006 20.6312 16.0978 21.0266C17.2626 21.9531 18.6817 22.7426 20.4468 22.9311C21.9218 23.0886 23.0365 22.0049 23.253 20.7965L24.701 12.7174H30.9137C31.9786 12.7174 32.8419 11.8529 32.8419 10.7865C32.8419 9.72017 31.9786 8.85571 30.9137 8.85571L25.3931 8.85571L26.0994 4.91492H34.7137C35.7796 4.91492 36.6437 4.05056 36.6437 2.98431C36.6437 1.91807 35.7796 1.05371 34.7137 1.05371H25.0808C23.8012 1.05371 22.7054 1.97078 22.4796 3.23068L19.6957 18.7641C19.3026 18.5827 18.9094 18.3299 18.5001 18.0043C17.7212 17.3848 16.9997 16.6016 16.1494 15.6784L16.1444 15.673C16.0769 15.5996 16.0086 15.5254 15.9393 15.4504L15.9224 15.432L17.856 4.14358C18.1326 2.52876 16.8892 1.05371 15.2513 1.05371H9.74218ZM8.12393 14.8501C9.46646 14.8501 10.5372 15.5128 11.7872 16.7101L11.6914 17.2694C11.5159 17.5724 10.5827 18.7707 7.58947 18.7707C6.11455 18.7707 5.46376 18.2853 5.15467 17.9246C4.78341 17.4913 4.67634 16.965 4.67943 16.7155C4.68314 16.4159 4.77969 16.0078 5.10575 15.6776C5.41088 15.3685 6.19042 14.8501 8.12393 14.8501Z" fill="#ECEDEE"/>
</svg>
