<svg width="64" height="64" viewBox="0 0 64 64" fill="none" xmlns="http://www.w3.org/2000/svg">
<path d="M32.001 58.0117C17.6647 58.0117 6.00098 46.328 6.00098 31.968C6.00098 24.1617 9.40723 16.843 15.346 11.8992C15.6233 11.667 15.9436 11.4917 16.2888 11.3835C16.6339 11.2753 16.997 11.2362 17.3572 11.2685C17.7174 11.3008 18.0678 11.4038 18.3881 11.5717C18.7085 11.7396 18.9926 11.969 19.2242 12.2469C19.4557 12.5247 19.6302 12.8455 19.7376 13.1909C19.845 13.5363 19.8832 13.8994 19.8501 14.2596C19.8169 14.6198 19.713 14.9699 19.5444 15.2898C19.3757 15.6098 19.1456 15.8933 18.8672 16.1242C14.186 20.0242 11.501 25.7992 11.501 31.968C11.501 43.2955 20.6972 52.5117 32.001 52.5117C43.3047 52.5117 52.501 43.2955 52.501 31.968C52.5007 28.9407 51.8299 25.951 50.5368 23.2138C49.2437 20.4765 47.3604 18.0596 45.0222 16.1367C44.7326 15.9106 44.4912 15.6288 44.3124 15.3078C44.1335 14.9868 44.0208 14.6333 43.9808 14.268C43.9409 13.9028 43.9745 13.5332 44.0798 13.1812C44.1851 12.8292 44.3598 12.5018 44.5937 12.2184C44.8276 11.9351 45.116 11.7015 45.4417 11.5314C45.7674 11.3613 46.1239 11.2582 46.4901 11.2283C46.8563 11.1983 47.2248 11.242 47.5738 11.3568C47.9229 11.4716 48.2453 11.6552 48.5222 11.8967C51.4864 14.3347 53.8737 17.3989 55.5126 20.8693C57.1515 24.3397 58.0013 28.13 58.001 31.968C58.001 46.328 46.3372 58.0117 32.001 58.0117Z" fill="white"/>
<path d="M31.9998 34.0103C31.2705 34.0103 30.571 33.7205 30.0553 33.2048C29.5396 32.6891 29.2498 31.9896 29.2498 31.2603V8.76025C29.2498 8.03091 29.5396 7.33144 30.0553 6.81571C30.571 6.29999 31.2705 6.01025 31.9998 6.01025C32.7292 6.01025 33.4286 6.29999 33.9444 6.81571C34.4601 7.33144 34.7498 8.03091 34.7498 8.76025V31.2603C34.7498 31.9896 34.4601 32.6891 33.9444 33.2048C33.4286 33.7205 32.7292 34.0103 31.9998 34.0103Z" fill="white"/>
</svg>
