<svg width="64" height="64" viewBox="0 0 64 64" fill="none" xmlns="http://www.w3.org/2000/svg">
<path fill-rule="evenodd" clip-rule="evenodd" d="M22.0745 5.99868C23.0229 6.03656 23.8146 6.73481 23.9706 7.67109L30.5097 46.9052L36.0683 27.4501C36.3096 26.6055 37.0729 26.0166 37.951 25.9976C38.8292 25.9785 39.6174 26.5336 39.8951 27.3669L43.4385 37.9971H48.3369C49.1628 35.6668 51.3863 33.9978 53.9996 33.9978C57.3168 33.9978 60.0059 36.6869 60.0059 40.0041C60.0059 43.3213 57.3168 46.0104 53.9996 46.0104C51.3836 46.0104 49.1581 44.3379 48.3343 42.0038H41.9946C41.1323 42.0038 40.3667 41.452 40.094 40.6339L38.1418 34.7773L31.9208 56.5508C31.6635 57.4514 30.8165 58.0535 29.8813 58.0006C28.9461 57.9476 28.1725 57.2537 28.0185 56.3298L21.602 17.8308L15.9381 40.4863C15.7151 41.3781 14.9138 42.0038 13.9946 42.0038H5.99456C4.88814 42.0038 3.99121 41.1069 3.99121 40.0004C3.99121 38.894 4.88814 37.9971 5.99456 37.9971H12.4304L20.051 7.51455C20.2812 6.59371 21.1261 5.96081 22.0745 5.99868ZM53.9996 38.0045C52.8953 38.0045 52 38.8998 52 40.0041C52 41.1085 52.8953 42.0037 53.9996 42.0037C55.104 42.0037 55.9992 41.1085 55.9992 40.0041C55.9992 38.8998 55.104 38.0045 53.9996 38.0045Z" fill="white"/>
</svg>
