<svg width="38" height="28" viewBox="0 0 38 28" fill="none" xmlns="http://www.w3.org/2000/svg">
<path d="M8.12238 4H17.0542V4.53597H15.5427V16.7221C15.5427 19.2609 14.9839 21.1133 13.8662 22.2793C12.7486 23.4264 11.0722 24 8.83693 24C7.35287 24 6.17112 23.7085 5.29168 23.1255C4.43056 22.5425 4 21.7245 4 20.6714C4 19.8627 4.21986 19.2327 4.65958 18.7814C5.0993 18.3112 5.69476 18.0762 6.44595 18.0762C7.21546 18.0762 7.78343 18.2736 8.14987 18.6685C8.53462 19.0635 8.727 19.543 8.727 20.1072C8.727 20.6526 8.62623 21.2073 8.42469 21.7715H7.35287C7.18798 22.0536 7.10553 22.3263 7.10553 22.5896C7.10553 22.834 7.22462 23.0503 7.4628 23.2384C7.71931 23.4076 8.0491 23.4922 8.45217 23.4922C9.18504 23.4922 9.65225 23.2008 9.85378 22.6178C10.0736 22.016 10.1836 20.7278 10.1836 18.7532V4.53597H8.12238V4Z" fill="#4F575E"/>
<path d="M19.4342 4H33.7252L34 9.86742H33.5053C32.8274 7.83639 32.0396 6.45416 31.1418 5.72073C30.2624 4.98731 28.9432 4.62059 27.1843 4.62059H26.4148V13.7884H27.6515C28.531 13.7884 29.2638 13.4593 29.8501 12.8011C30.4364 12.1429 30.8395 11.2402 31.0594 10.0931H31.4716V18.4429H31.0044C30.7113 17.0324 30.299 16.0263 29.7677 15.4245C29.2547 14.8228 28.5493 14.5219 27.6515 14.5219H26.4148V23.1255H29.8227V23.7461H19.4342V23.1255H21.0557V4.62059H19.4342V4Z" fill="#4F575E"/>
</svg>
